<svg width="170" height="60" viewBox="0 0 170 60" fill="none" xmlns="http://www.w3.org/2000/svg">
<g clip-path="url(#clip0_11_208)">
<path d="M51.2063 14.1375C48.3878 11.3619 44.587 9.81189 40.6313 9.82503H40.4625C36.5351 9.86139 32.7786 11.4367 30 14.2125C27.1149 11.4666 23.2767 9.94745 19.2938 9.97503C16.2685 10.0132 13.3223 10.9463 10.8267 12.6567C8.33111 14.367 6.39785 16.7781 5.27076 19.5858C4.14367 22.3935 3.87322 25.4721 4.49352 28.4333C5.11382 31.3945 6.59709 34.1057 8.75627 36.225L9.56252 36.9563C9.63984 37.0647 9.72778 37.1652 9.82502 37.2563L28.9875 56.0063C29.3368 56.3527 29.8081 56.548 30.3 56.55C30.5481 56.549 30.7935 56.4988 31.022 56.4022C31.2505 56.3056 31.4576 56.1647 31.6313 55.9875L50.3813 36.8063C50.5828 36.5982 50.7363 36.3487 50.8313 36.075L51.4313 35.4938C54.2217 32.6259 55.7642 28.7705 55.722 24.7693C55.6799 20.7681 54.0565 16.946 51.2063 14.1375Z" fill="url(#paint0_linear_11_208)"/>
<path d="M54.375 28.3688L34.2375 28.1251C33.8695 28.1254 33.5096 28.234 33.2029 28.4374C32.8962 28.6407 32.6561 28.9299 32.5125 29.2688L31.875 26.7751C31.7967 26.4904 31.6523 26.2283 31.4536 26.01C31.2548 25.7917 31.0073 25.6234 30.7313 25.5188C30.451 25.4147 30.1499 25.3791 29.8531 25.4149C29.5563 25.4508 29.2724 25.5571 29.025 25.7251L26.6625 27.3188L24.0375 19.8188C23.9245 19.4951 23.7249 19.2086 23.4605 18.9904C23.196 18.7722 22.8768 18.6307 22.5375 18.5813C22.186 18.5144 21.8227 18.5494 21.4904 18.6823C21.1582 18.8152 20.8709 19.0404 20.6625 19.3313L14.1938 28.1251L5.62501 28.3688C5.37879 28.3762 5.13642 28.432 4.91177 28.5331C4.68711 28.6341 4.48455 28.7784 4.31566 28.9578C3.97458 29.3199 3.79135 29.8028 3.80626 30.3001C3.82118 30.7973 4.03303 31.2683 4.39521 31.6094C4.75739 31.9505 5.24023 32.1337 5.73751 32.1188L15.2063 31.8751C15.4926 31.8671 15.7732 31.7937 16.0268 31.6605C16.2803 31.5272 16.4999 31.3376 16.6688 31.1063L21.6 24.3751L23.85 30.8438C23.9447 31.1151 24.1004 31.3611 24.3052 31.5627C24.51 31.7642 24.7585 31.916 25.0313 32.0063C25.305 32.0984 25.5964 32.1261 25.8826 32.087C26.1688 32.048 26.4422 31.9434 26.6813 31.7813L28.8938 30.2813L30.375 35.7188C30.4781 36.1032 30.7008 36.4449 31.0109 36.6943C31.321 36.9438 31.7024 37.0881 32.1 37.1063H32.1938C32.5715 37.1052 32.94 36.99 33.2512 36.7759C33.5623 36.5618 33.8015 36.2587 33.9375 35.9063L35.4938 31.8751L54.375 32.1188C54.8723 32.1188 55.3492 31.9213 55.7008 31.5696C56.0525 31.218 56.25 30.7411 56.25 30.2438C56.25 29.7465 56.0525 29.2696 55.7008 28.918C55.3492 28.5664 54.8723 28.3688 54.375 28.3688Z" fill="#924B13"/>
<path d="M73.928 38.04C73.928 38.808 73.456 39.192 72.512 39.192C71.568 39.192 71.096 38.808 71.096 38.04V31.656L65.72 21.432C65.624 21.224 65.576 21.008 65.576 20.784C65.576 20.32 65.848 19.976 66.392 19.752H66.368C66.72 19.624 67 19.56 67.208 19.56C67.624 19.56 67.944 19.768 68.168 20.184L72.536 28.392C72.856 27.784 73.2 27.136 73.568 26.448C73.936 25.744 74.304 25.032 74.672 24.312C75.056 23.592 75.432 22.88 75.8 22.176C76.168 21.472 76.52 20.808 76.856 20.184C76.984 19.992 77.12 19.84 77.264 19.728C77.424 19.616 77.616 19.56 77.84 19.56C78.064 19.56 78.328 19.624 78.632 19.752H78.608C79.168 19.992 79.448 20.344 79.448 20.808C79.448 20.904 79.44 21.008 79.424 21.12C79.408 21.216 79.368 21.32 79.304 21.432C79.16 21.72 78.976 22.072 78.752 22.488C78.544 22.904 78.24 23.488 77.84 24.24C77.456 24.976 76.952 25.944 76.328 27.144C75.704 28.328 74.904 29.856 73.928 31.728V38.04ZM89.3137 24.552C89.7297 24.552 90.1537 24.64 90.5857 24.816C91.0337 24.992 91.4657 25.216 91.8817 25.488H91.8577C92.2737 25.792 92.5937 26.192 92.8177 26.688C93.0417 27.168 93.1537 27.728 93.1537 28.368V35.184C93.1537 36.496 92.7217 37.464 91.8577 38.088C91.0097 38.696 90.1617 39 89.3137 39H85.4737C85.0577 39 84.6337 38.928 84.2017 38.784C83.7697 38.64 83.3457 38.408 82.9297 38.088C82.0657 37.48 81.6337 36.512 81.6337 35.184V28.368C81.6337 27.728 81.7457 27.168 81.9697 26.688C82.1937 26.192 82.5137 25.792 82.9297 25.488H82.9057C83.3057 25.216 83.7297 24.992 84.1777 24.816C84.6257 24.64 85.0577 24.552 85.4737 24.552H89.3137ZM88.8817 36.744C89.4737 36.744 89.8897 36.576 90.1297 36.24C90.3857 35.904 90.5137 35.544 90.5137 35.16V28.392C90.5137 27.992 90.3857 27.632 90.1297 27.312C89.8897 26.976 89.4737 26.808 88.8817 26.808H85.9057C85.3137 26.808 84.8897 26.976 84.6337 27.312C84.3937 27.632 84.2737 27.992 84.2737 28.392V35.16C84.2737 35.544 84.3937 35.904 84.6337 36.24C84.8897 36.576 85.3137 36.744 85.9057 36.744H88.8817ZM107.732 35.184C107.732 35.824 107.62 36.392 107.396 36.888C107.172 37.384 106.852 37.784 106.436 38.088H106.46C106.06 38.36 105.636 38.584 105.188 38.76C104.74 38.92 104.308 39 103.892 39H100.028C99.6284 39 99.1964 38.92 98.7324 38.76C98.2844 38.584 97.8604 38.36 97.4604 38.088H97.4844C97.0684 37.784 96.7484 37.384 96.5244 36.888C96.3004 36.392 96.1884 35.824 96.1884 35.184V25.56C96.1884 24.792 96.6284 24.408 97.5084 24.408C98.3884 24.408 98.8284 24.792 98.8284 25.56V34.992C98.8284 35.44 98.9404 35.832 99.1644 36.168C99.3724 36.552 99.8044 36.744 100.46 36.744H103.46C104.1 36.744 104.524 36.552 104.732 36.168L104.708 36.192C104.964 35.808 105.092 35.408 105.092 34.992V25.56C105.092 24.792 105.532 24.408 106.412 24.408C107.292 24.408 107.732 24.792 107.732 25.56V35.184Z" fill="white"/>
<path d="M120.823 30.336C120.823 29.552 121.303 29.16 122.263 29.16C123.207 29.16 123.679 29.536 123.679 30.288V35.16C123.679 36.456 123.247 37.424 122.383 38.064C121.967 38.368 121.535 38.608 121.087 38.784C120.655 38.944 120.231 39.024 119.815 39.024H114.823C114.407 39.024 113.975 38.944 113.527 38.784C113.095 38.608 112.671 38.368 112.255 38.064C111.839 37.744 111.519 37.352 111.295 36.888C111.071 36.408 110.959 35.832 110.959 35.16V23.76C110.959 23.104 111.071 22.536 111.295 22.056C111.535 21.576 111.855 21.184 112.255 20.88H112.231C112.647 20.608 113.079 20.384 113.527 20.208C113.975 20.032 114.407 19.944 114.823 19.944H119.575C119.991 19.944 120.423 20.032 120.871 20.208C121.319 20.384 121.751 20.608 122.167 20.88H122.143C122.991 21.504 123.415 22.464 123.415 23.76V25.416C123.415 26.184 122.943 26.568 121.999 26.568C121.055 26.568 120.583 26.184 120.583 25.416V23.976C120.583 23.576 120.463 23.208 120.223 22.872C119.983 22.536 119.567 22.368 118.975 22.368H115.447C114.839 22.368 114.415 22.536 114.175 22.872C113.935 23.208 113.815 23.576 113.815 23.976V34.968C113.815 35.176 113.839 35.376 113.887 35.568C113.951 35.76 114.047 35.936 114.175 36.096C114.303 36.24 114.471 36.36 114.679 36.456C114.887 36.552 115.143 36.6 115.447 36.6H119.215C119.807 36.6 120.223 36.432 120.463 36.096C120.703 35.76 120.823 35.384 120.823 34.968V30.336ZM119.695 30.072C119.695 30.344 119.639 30.608 119.527 30.864C119.431 31.104 119.287 31.312 119.095 31.488C118.919 31.664 118.711 31.808 118.471 31.92C118.231 32.016 117.967 32.064 117.679 32.064C117.135 32.064 116.671 31.872 116.287 31.488C115.903 31.104 115.711 30.632 115.711 30.072C115.711 29.528 115.903 29.064 116.287 28.68C116.671 28.296 117.135 28.104 117.679 28.104C117.967 28.104 118.231 28.16 118.471 28.272C118.711 28.368 118.919 28.504 119.095 28.68C119.287 28.856 119.431 29.064 119.527 29.304C119.639 29.544 119.695 29.8 119.695 30.072ZM129.789 35.16C129.789 35.544 129.909 35.904 130.149 36.24C130.405 36.576 130.829 36.744 131.421 36.744H134.421C135.013 36.744 135.429 36.6 135.669 36.312C135.925 36.008 136.053 35.664 136.053 35.28V35.016C136.053 34.264 136.493 33.888 137.373 33.888C138.253 33.888 138.693 34.264 138.693 35.016V35.304C138.693 35.976 138.581 36.528 138.357 36.96C138.149 37.392 137.829 37.768 137.397 38.088C136.549 38.696 135.701 39 134.853 39H130.821C129.973 39 129.149 38.696 128.349 38.088C127.965 37.768 127.669 37.368 127.461 36.888C127.253 36.392 127.149 35.824 127.149 35.184V28.344C127.149 27.048 127.549 26.088 128.349 25.464C128.749 25.176 129.157 24.952 129.573 24.792C130.005 24.616 130.421 24.528 130.821 24.528H134.853C135.237 24.528 135.661 24.608 136.125 24.768C136.589 24.912 137.021 25.112 137.421 25.368C137.805 25.64 138.109 26.016 138.333 26.496C138.573 26.976 138.693 27.544 138.693 28.2V31.44C138.693 31.808 138.581 32.136 138.357 32.424C138.149 32.712 137.757 32.856 137.181 32.856H131.997C131.421 32.856 131.117 32.48 131.085 31.728C131.085 30.976 131.389 30.6 131.997 30.6H136.077L136.053 28.368C136.053 27.968 135.925 27.608 135.669 27.288C135.429 26.952 135.013 26.784 134.421 26.784H131.421C130.829 26.784 130.405 26.952 130.149 27.288C129.909 27.608 129.789 27.968 129.789 28.368V35.16ZM144.391 37.992C144.391 38.76 143.951 39.144 143.071 39.144C142.191 39.144 141.751 38.76 141.751 37.992V28.344C141.751 27.688 141.855 27.12 142.063 26.64C142.271 26.16 142.599 25.768 143.047 25.464C143.895 24.856 144.743 24.552 145.591 24.552H149.455C150.271 24.552 151.119 24.856 151.999 25.464C152.863 26.072 153.295 27.032 153.295 28.344V37.992C153.295 38.76 152.855 39.144 151.975 39.144C151.095 39.144 150.655 38.76 150.655 37.992V28.56C150.655 28.144 150.527 27.744 150.271 27.36L150.295 27.384C150.087 27 149.663 26.808 149.023 26.808H146.023C145.367 26.808 144.935 27 144.727 27.384C144.503 27.72 144.391 28.112 144.391 28.56V37.992ZM159.039 35.16C159.039 35.544 159.159 35.904 159.399 36.24C159.655 36.576 160.079 36.744 160.671 36.744H163.671C164.263 36.744 164.679 36.6 164.919 36.312C165.175 36.008 165.303 35.664 165.303 35.28V35.016C165.303 34.264 165.743 33.888 166.623 33.888C167.503 33.888 167.943 34.264 167.943 35.016V35.304C167.943 35.976 167.831 36.528 167.607 36.96C167.399 37.392 167.079 37.768 166.647 38.088C165.799 38.696 164.951 39 164.103 39H160.071C159.223 39 158.399 38.696 157.599 38.088C157.215 37.768 156.919 37.368 156.711 36.888C156.503 36.392 156.399 35.824 156.399 35.184V28.344C156.399 27.048 156.799 26.088 157.599 25.464C157.999 25.176 158.407 24.952 158.823 24.792C159.255 24.616 159.671 24.528 160.071 24.528H164.103C164.487 24.528 164.911 24.608 165.375 24.768C165.839 24.912 166.271 25.112 166.671 25.368C167.055 25.64 167.359 26.016 167.583 26.496C167.823 26.976 167.943 27.544 167.943 28.2V31.44C167.943 31.808 167.831 32.136 167.607 32.424C167.399 32.712 167.007 32.856 166.431 32.856H161.247C160.671 32.856 160.367 32.48 160.335 31.728C160.335 30.976 160.639 30.6 161.247 30.6H165.327L165.303 28.368C165.303 27.968 165.175 27.608 164.919 27.288C164.679 26.952 164.263 26.784 163.671 26.784H160.671C160.079 26.784 159.655 26.952 159.399 27.288C159.159 27.608 159.039 27.968 159.039 28.368V35.16Z" fill="url(#paint1_linear_11_208)"/>
</g>
<defs>
<linearGradient id="paint0_linear_11_208" x1="29.9455" y1="9.82495" x2="29.9455" y2="56.55" gradientUnits="userSpaceOnUse">
<stop stop-color="#E2B999"/>
<stop offset="1" stop-color="#FD892E"/>
</linearGradient>
<linearGradient id="paint1_linear_11_208" x1="117.5" y1="12" x2="117.5" y2="48" gradientUnits="userSpaceOnUse">
<stop stop-color="#E2B999"/>
<stop offset="1" stop-color="#FD892E"/>
</linearGradient>
<clipPath id="clip0_11_208">
<rect width="170" height="60" fill="white"/>
</clipPath>
</defs>
</svg>
